<?xml version="1.0" standalone="no"?>
<!DOCTYPE svg PUBLIC "-//W3C//DTD SVG 20010904//EN"
 "http://www.w3.org/TR/2001/REC-SVG-20010904/DTD/svg10.dtd">
<svg version="1.0" xmlns="http://www.w3.org/2000/svg"
 width="704.000000pt" height="704.000000pt" viewBox="0 0 704.000000 704.000000"
 preserveAspectRatio="xMidYMid meet">
<metadata>
Created by potrace 1.14, written by Peter Selinger 2001-2017
</metadata>
<g transform="translate(0.000000,704.000000) scale(0.100000,-0.100000)"
fill="#000000" stroke="none">
<path d="M2860 6918 c-113 -64 -245 -141 -294 -170 -49 -29 -94 -55 -100 -57
-6 -2 -22 -12 -36 -21 -14 -9 -47 -30 -75 -45 -85 -47 -127 -71 -220 -125 -49
-29 -110 -64 -135 -78 -25 -14 -74 -42 -109 -64 -34 -21 -64 -38 -66 -38 -2 0
-32 -17 -66 -38 -35 -22 -84 -50 -109 -64 -25 -14 -74 -43 -110 -63 -36 -21
-104 -61 -153 -89 -48 -28 -100 -58 -115 -66 -15 -8 -60 -34 -100 -58 -41 -23
-78 -42 -83 -42 -5 0 -9 -4 -9 -8 0 -4 -12 -13 -27 -20 -36 -16 -81 -42 -153
-86 -32 -20 -63 -36 -69 -36 -6 0 -44 -22 -85 -50 -41 -27 -77 -50 -80 -50 -2
0 -41 -22 -85 -50 -45 -27 -81 -47 -81 -44 0 3 -15 -6 -33 -20 -19 -14 -37
-23 -40 -19 -4 3 -7 1 -7 -5 0 -7 -7 -12 -15 -12 -8 0 -15 -4 -15 -10 0 -5 -5
-10 -11 -10 -6 0 -38 -16 -70 -36 l-59 -35 2 -1892 c3 -1880 3 -1891 23 -1902
11 -6 47 -26 80 -46 33 -19 67 -38 75 -42 8 -4 29 -16 45 -26 17 -11 46 -28
65 -39 73 -40 110 -62 149 -86 22 -15 45 -26 51 -26 5 0 10 -5 10 -11 0 -5 4
-8 9 -5 5 3 14 -1 21 -9 9 -11 33 -15 86 -15 64 0 74 2 75 18 0 9 1 368 2 797
l2 780 675 1 675 2 43 -25 42 -24 0 -1233 c0 -1166 1 -1234 18 -1239 9 -4 37
-18 62 -33 25 -15 59 -35 75 -44 17 -9 54 -31 83 -49 29 -17 55 -31 57 -31 3
0 34 -18 70 -40 36 -22 70 -40 75 -40 6 0 10 -5 10 -12 0 -6 3 -8 7 -5 3 4 13
1 22 -6 22 -18 158 -97 167 -97 4 0 16 -7 26 -17 17 -15 18 -15 19 3 0 10 1
743 1 1628 l1 1609 -24 17 c-23 17 -53 34 -149 88 -25 13 -52 30 -60 37 -8 6
-30 17 -47 25 -18 7 -33 15 -33 19 0 3 -22 16 -48 29 -26 13 -56 30 -67 38
-17 13 -18 16 -5 25 27 17 93 55 240 139 80 46 156 91 170 100 l25 18 -1 1621
c0 892 -3 1623 -5 1624 -2 2 -96 -50 -209 -115z m-487 -2739 c-9 -8 -139 -83
-288 -167 -55 -31 -101 -60 -103 -64 -2 -4 -7 -8 -12 -8 -8 0 -45 -21 -187
-103 -426 -248 -408 -238 -451 -237 -20 0 -45 0 -54 0 -15 -1 -103 -1 -165 -1
-10 1 -52 1 -95 1 l-76 1 1 712 2 712 33 10 c17 5 32 13 32 17 0 4 4 8 9 8 7
0 271 149 356 201 17 11 37 22 45 26 8 4 42 23 75 43 33 20 67 39 75 43 8 4
33 18 55 32 22 14 47 28 55 32 8 4 84 48 170 98 86 50 162 94 170 98 8 4 22
11 30 17 20 13 234 137 285 165 l40 22 3 -826 c1 -454 -1 -828 -5 -832z"/>
<path d="M3979 7023 c-1 -11 -1 -6961 0 -6997 1 -27 2 -28 24 -13 24 17 236
139 252 146 6 2 12 7 15 10 3 4 16 12 30 18 14 7 48 26 75 43 28 16 56 33 64
37 8 3 64 35 125 71 61 36 131 76 156 90 25 14 56 32 70 41 14 10 46 28 73 42
26 13 47 27 47 31 0 5 5 8 10 8 6 0 66 33 135 73 69 39 137 78 152 86 16 8 30
17 33 20 3 3 23 15 45 26 22 11 42 22 45 25 3 3 68 41 145 85 77 44 142 83
143 87 2 5 7 6 12 3 5 -3 14 1 22 8 7 7 51 34 98 61 47 27 105 60 129 74 25
13 67 38 93 53 27 16 53 29 58 29 6 0 10 5 10 10 0 6 5 10 11 10 6 0 36 15 67
34 112 67 492 286 497 286 3 0 11 5 18 10 7 6 47 31 90 56 l77 44 0 985 0 985
-37 1 c-21 0 -72 0 -113 -1 -41 0 -79 -1 -85 -1 -5 0 -64 0 -130 0 -66 0 -129
1 -140 1 -144 2 -216 1 -224 -5 -6 -3 -11 -2 -11 3 0 6 -14 7 -34 2 -19 -4
-37 -5 -40 -3 -2 3 -49 4 -103 4 -54 -1 -107 -2 -118 -2 -29 -1 -156 0 -185 1
-174 5 -330 3 -330 -3 0 -5 -4 -6 -8 -3 -7 4 -155 10 -188 7 -7 -1 -10 -110
-11 -346 l0 -345 533 0 533 0 0 -435 -1 -434 -56 -33 c-31 -17 -58 -35 -60
-40 -2 -4 -8 -8 -13 -8 -10 0 -240 -130 -249 -141 -3 -3 -9 -8 -15 -10 -13 -5
-165 -91 -230 -130 -27 -17 -58 -33 -67 -36 -10 -3 -18 -9 -18 -14 0 -5 -5 -9
-11 -9 -6 0 -48 -22 -95 -50 -47 -27 -86 -50 -89 -50 -2 0 -24 -13 -48 -30
-25 -16 -48 -30 -51 -30 -4 0 -167 -94 -226 -130 -8 -5 -42 -24 -75 -43 -33
-19 -77 -44 -97 -57 l-38 -22 0 2317 0 2316 33 -18 c17 -10 34 -20 37 -23 5
-5 27 -17 105 -59 17 -9 32 -19 33 -23 2 -5 8 -8 13 -8 8 0 219 -121 629 -360
205 -119 385 -223 427 -246 27 -15 161 -92 298 -172 138 -80 275 -159 305
-175 30 -17 57 -34 58 -39 2 -4 7 -8 12 -8 5 0 47 -22 94 -50 l86 -49 0 399 0
400 -56 32 c-31 18 -72 43 -92 55 -21 11 -48 28 -62 35 -14 8 -42 24 -62 36
-21 12 -55 32 -75 43 -101 57 -180 106 -195 122 -10 9 -25 17 -33 17 -9 0 -33
11 -55 25 -22 14 -42 25 -45 25 -3 0 -24 11 -46 26 -22 14 -55 33 -72 43 -204
116 -256 147 -282 162 -16 10 -57 33 -89 51 -32 18 -66 38 -75 43 -9 6 -34 21
-56 33 -22 13 -62 36 -90 53 -27 16 -58 33 -67 36 -10 3 -18 10 -18 16 0 6 -3
7 -7 4 -3 -4 -13 -1 -22 6 -14 12 -129 80 -261 155 -19 10 -176 101 -349 201
-172 99 -317 181 -321 181 -5 0 -10 3 -12 8 -3 7 -69 45 -115 67 -13 5 -23 13
-23 18 0 4 -4 7 -9 7 -9 0 -106 53 -161 88 -14 9 -28 17 -32 17 -3 0 -10 3
-14 8 -4 4 -11 7 -16 7 -4 0 -8 -3 -9 -7z"/>
</g>
</svg>
